<svg width="120" height="136" viewBox="0 0 120 136" fill="none" xmlns="http://www.w3.org/2000/svg">
<path d="M15.3631 17.375H18.8162V21.3125H28.6444V24.2812H18.8162V28H28.0975V30.9375H18.8162V35.7656C22.5246 37.0156 26.1808 38.8958 29.785 41.4062L27.9412 44.375C25.2121 42.3333 22.1704 40.5312 18.8162 38.9688C18.7329 40.75 18.3892 42.1302 17.785 43.1094C16.7329 44.8073 14.66 45.6562 11.5662 45.6562C9.18083 45.6562 7.26417 45.2083 5.81625 44.3125C4.20167 43.3125 3.39437 41.9583 3.39437 40.25C3.39437 38.2083 4.48292 36.6979 6.66 35.7188C8.11833 35.0729 10.0142 34.75 12.3475 34.75C13.2642 34.75 14.2694 34.8229 15.3631 34.9688V30.9375H4.285V28H15.3631V24.2812H3.61312V21.3125H15.3631V17.375ZM15.3631 37.875C14.1235 37.6146 12.936 37.4844 11.8006 37.4844C10.4152 37.4844 9.29021 37.6875 8.42562 38.0938C7.39437 38.5833 6.87875 39.2812 6.87875 40.1875C6.87875 40.9479 7.27979 41.5625 8.08187 42.0312C8.89437 42.5104 9.97771 42.75 11.3319 42.75C12.936 42.75 14.0402 42.3229 14.6444 41.4688C15.1235 40.8021 15.3631 39.8073 15.3631 38.4844V37.875ZM63.4219 27.9375H66.9688V36.5156C69.4062 37.5885 71.901 39.0052 74.4531 40.7656L72.6562 43.6875C70.8646 42.375 68.9688 41.1562 66.9688 40.0312C66.8542 41.875 66.2552 43.2917 65.1719 44.2812C63.9635 45.375 62.2708 45.9219 60.0938 45.9219C57.9896 45.9219 56.2552 45.4427 54.8906 44.4844C53.5573 43.5365 52.8906 42.2135 52.8906 40.5156C52.8906 38.7344 53.7292 37.3073 55.4062 36.2344C56.7083 35.401 58.375 34.9844 60.4062 34.9844C61.3542 34.9844 62.3594 35.099 63.4219 35.3281V27.9375ZM63.4219 38.5312C62.1823 38.1042 61.0104 37.8906 59.9062 37.8906C58.8229 37.8906 57.9531 38.0833 57.2969 38.4688C56.4531 38.9688 56.0312 39.6354 56.0312 40.4688C56.0312 41.4896 56.6354 42.2344 57.8438 42.7031C58.4479 42.9323 59.1719 43.0469 60.0156 43.0469C61.3698 43.0469 62.3438 42.474 62.9375 41.3281C63.2604 40.7135 63.4219 39.9948 63.4219 39.1719V38.5312ZM46.6562 21.9531H52.625C53.1562 20.151 53.5833 18.5625 53.9062 17.1875L57.3281 17.6094C56.9115 19.1406 56.4844 20.5885 56.0469 21.9531H61.75V25.0938H55.0312C53.1667 30.4375 50.9792 34.9583 48.4688 38.6562L45.5625 37C47.9375 33.4792 49.9427 29.5104 51.5781 25.0938H46.6562V21.9531ZM72.75 29.5625C70.4375 26.9896 67.7812 24.6458 64.7812 22.5312L66.8438 20.2812C69.8229 22.2083 72.5417 24.4531 75 27.0156L72.75 29.5625ZM108.481 24.7031C105.095 22.9427 101.048 21.5469 96.34 20.5156L97.7462 17.625C102.455 18.5104 106.554 19.8698 110.043 21.7031L108.481 24.7031ZM97.9494 39.5156C99.1994 41.4427 100.58 42.4062 102.09 42.4062C103.85 42.4062 104.731 41.4115 104.731 39.4219C104.731 37.9427 104.277 36.099 103.371 33.8906C102.434 31.6198 101.231 29.6146 99.7619 27.875L102.59 26.4062C104.58 28.75 106.106 31.3073 107.168 34.0781C107.949 36.1198 108.34 37.9635 108.34 39.6094C108.34 41.4323 107.887 42.8854 106.981 43.9688C105.897 45.25 104.319 45.8906 102.246 45.8906C99.8087 45.8906 97.84 44.6615 96.34 42.2031L97.9494 39.5156ZM88.7931 41.1562C90.866 37.7396 92.3192 33.6094 93.1525 28.7656L96.4025 29.8281C95.3921 35.401 93.8452 39.7708 91.7619 42.9375L88.7931 41.1562ZM115.09 42.4062C113.923 37.5938 112.272 33.2188 110.137 29.2812L113.043 28C115.418 31.9375 117.179 36.2812 118.324 41.0312L115.09 42.4062ZM113.527 23.7812C112.861 22.0729 111.824 20.2135 110.418 18.2031L112.793 17.3438C114.022 19.0417 115.069 20.8646 115.934 22.8125L113.527 23.7812ZM117.465 22.4062C116.736 20.5208 115.71 18.651 114.387 16.7969L116.668 16.0312C117.866 17.4896 118.887 19.2604 119.731 21.3438L117.465 22.4062Z" fill="#446FB0"/>
<path d="M6.00195 65.7422H11.5928V82.6611H21.4072V65.7422H26.998V106.245H21.4072V87.9102H11.5928V106.245H6.00195V65.7422ZM49.5508 65.7422H55.0439V92.3535C55.0439 95.4622 55.4427 97.806 56.2402 99.3848C56.5983 100.117 56.9971 100.679 57.4365 101.069C58.055 101.623 58.9176 101.899 60.0244 101.899C63.3122 101.899 64.9561 98.7174 64.9561 92.3535V65.7422H70.4492V92.7441C70.4492 96.1784 69.9447 99.0186 68.9355 101.265C68.61 101.965 68.2357 102.616 67.8125 103.218C65.8757 105.903 63.2552 107.246 59.9512 107.246C57.2656 107.246 54.987 106.278 53.1152 104.341C50.7389 101.867 49.5508 98.0013 49.5508 92.7441V65.7422ZM93.6611 65.7422H102.646C104.957 65.7422 106.861 66.141 108.358 66.9385C109.905 67.7686 111.076 69.0706 111.874 70.8447C112.558 72.3096 112.899 73.986 112.899 75.874C112.899 81.0498 110.865 84.1423 106.796 85.1514V85.2979C111.5 86.5511 113.852 89.7575 113.852 94.917C113.852 99.279 112.517 102.461 109.848 104.463C108.285 105.651 106.218 106.245 103.646 106.245H93.6611V65.7422ZM99.1055 70.5518V82.7344H102.011C105.396 82.7344 107.089 80.6917 107.089 76.6064C107.089 72.57 105.461 70.5518 102.206 70.5518H99.1055ZM99.1055 87.5928V101.338H102.816C104.281 101.338 105.404 100.898 106.186 100.02C107.325 98.7174 107.895 96.8783 107.895 94.502C107.895 91.6374 107.048 89.6354 105.355 88.4961C104.46 87.8939 103.378 87.5928 102.108 87.5928H99.1055Z" fill="#446FB0"/>
</svg>